<svg width="454" height="310" viewBox="0 0 454 310" fill="none" xmlns="http://www.w3.org/2000/svg">
<path d="M-0.000304725 68.2057L22.0945 -9.16142e-05H39.4822L61.6731 68.2057H47.3595L43.0366 53.8921H18.5401L14.2172 68.2057H-0.000304725ZM21.0378 43.325H40.5389L31.0285 11.8158H30.8364L21.0378 43.325ZM85.1841 69.7427C75.0013 69.7427 69.0453 63.6906 69.0453 54.0842V28.8192H60.5916V19.2128H69.0453V5.95591L81.5337 3.17003V19.2128H98.1528V28.8192H81.5337V51.8747C81.5337 56.5819 83.7431 59.3677 87.4897 59.3677C91.044 59.3677 93.7338 57.2543 94.8866 52.0668L100.939 58.6953C99.0174 65.708 93.0614 69.7427 85.1841 69.7427ZM128.901 69.7427C118.718 69.7427 112.762 63.6906 112.762 54.0842V28.8192H104.308V19.2128H112.762V5.95591L125.25 3.17003V19.2128H141.87V28.8192H125.25V51.8747C125.25 56.5819 127.46 59.3677 131.206 59.3677C134.761 59.3677 137.451 57.2543 138.603 52.0668L144.656 58.6953C142.734 65.708 136.778 69.7427 128.901 69.7427ZM176.076 17.7718C184.146 17.7718 189.141 23.8239 189.525 34.2949L178.958 37.2729C178.67 31.0287 176.268 27.5704 172.426 27.5704C167.43 27.5704 164.452 32.854 164.452 41.884V68.2057H151.868V19.2128H162.051L163.588 27.3783H163.684C165.893 21.3262 170.504 17.7718 176.076 17.7718ZM211.471 69.3585C202.152 69.3585 195.62 63.9788 195.62 55.333C195.62 46.5912 202.441 40.5391 215.217 39.1942L222.998 38.3296C225.304 38.1375 227.033 36.6005 227.033 33.9107C227.033 29.7799 223.383 27.1862 218.483 27.1862C212.527 27.1862 208.685 31.7012 208.493 36.8887L196.965 34.1989C197.349 24.8806 205.899 17.5797 218.579 17.5797C231.26 17.5797 239.233 24.8806 239.233 35.832V68.2057H228.09L226.745 61.3851H226.649C223.575 66.4765 218.195 69.3585 211.471 69.3585ZM216.082 59.8481C222.23 59.8481 226.745 55.237 226.745 48.4164V45.9187L218.099 46.8794C211.278 47.6479 208.204 50.4338 208.204 54.0842C208.204 57.7347 211.471 59.8481 216.082 59.8481ZM271.903 69.8388C257.398 69.8388 248.079 59.6559 248.175 43.7092C248.175 27.7625 257.109 17.5797 270.655 17.5797C281.606 17.5797 289.579 24.3042 291.693 35.0634L280.069 37.8493C278.82 31.5091 275.17 27.9547 270.751 27.9547C264.699 27.9547 260.664 33.9107 260.664 43.7092C260.664 53.5078 265.275 59.4638 271.999 59.4638C277.763 59.4638 281.99 55.0448 283.047 47.6479L294.671 49.7613C292.942 61.9615 284.104 69.8388 271.903 69.8388ZM323 69.7427C312.817 69.7427 306.861 63.6906 306.861 54.0842V28.8192H298.407V19.2128H306.861V5.95591L319.349 3.17003V19.2128H335.969V28.8192H319.349V51.8747C319.349 56.5819 321.559 59.3677 325.305 59.3677C328.86 59.3677 331.55 57.2543 332.702 52.0668L338.754 58.6953C336.833 65.708 330.877 69.7427 323 69.7427ZM3.36195 228.313V157.225H15.9464V228.313H3.36195ZM33.7296 171.731C29.1185 171.731 25.9484 168.657 25.9484 164.046C25.9484 159.531 29.1185 156.457 33.7296 156.457C38.4367 156.457 41.6069 159.531 41.6069 164.046C41.6069 168.657 38.4367 171.731 33.7296 171.731ZM27.3893 228.313V179.32H39.9738V228.313H27.3893ZM51.5818 228.313V157.225H64.1663V197.092H64.2623L79.1523 179.32H93.7541L77.5192 197.572L94.5226 228.313H80.9775L69.3537 206.122L64.1663 211.982V228.313H51.5818ZM121.189 229.946C105.722 229.946 95.6356 219.475 95.6356 203.336C95.6356 187.774 104.762 177.687 118.979 177.687C132.716 177.687 141.458 187.486 141.458 202.856C141.458 204.681 141.362 206.506 141.074 207.467H108.124C108.796 215.344 113.792 220.244 121.189 220.244C126.664 220.244 130.987 217.458 132.813 212.655L142.515 216.497C139.825 224.855 131.372 229.946 121.189 229.946ZM108.124 199.302H128.778C128.394 191.713 124.839 187.39 118.979 187.39C112.639 187.39 108.989 191.905 108.124 199.302ZM200.736 177.975C209.862 177.975 215.434 183.835 215.434 193.826V228.313H202.946V196.228C202.946 191.232 200.16 188.254 195.645 188.254C189.593 188.254 185.654 192.481 185.654 199.206V228.313H173.07V179.32H183.637L185.27 186.717H185.366C188.44 181.145 193.916 177.975 200.736 177.975ZM249.994 229.946C234.528 229.946 224.441 219.475 224.441 203.336C224.441 187.774 233.567 177.687 247.784 177.687C261.522 177.687 270.264 187.486 270.264 202.856C270.264 204.681 270.167 206.506 269.879 207.467H236.929C237.602 215.344 242.597 220.244 249.994 220.244C255.47 220.244 259.793 217.458 261.618 212.655L271.32 216.497C268.63 224.855 260.177 229.946 249.994 229.946ZM236.929 199.302H257.583C257.199 191.713 253.644 187.39 247.784 187.39C241.444 187.39 237.794 191.905 236.929 199.302ZM290.155 228.313L274.592 179.32H287.657L298.224 217.842H298.32L308.984 179.32H322.048L306.294 228.313H290.155ZM351.218 229.946C335.752 229.946 325.665 219.475 325.665 203.336C325.665 187.774 334.791 177.687 349.009 177.687C362.746 177.687 371.488 187.486 371.488 202.856C371.488 204.681 371.392 206.506 371.103 207.467H338.153C338.826 215.344 343.821 220.244 351.218 220.244C356.694 220.244 361.017 217.458 362.842 212.655L372.544 216.497C369.855 224.855 361.401 229.946 351.218 229.946ZM338.153 199.302H358.807C358.423 191.713 354.869 187.39 349.009 187.39C342.668 187.39 339.018 191.905 338.153 199.302ZM405.636 177.879C413.706 177.879 418.701 183.931 419.085 194.402L408.518 197.38C408.23 191.136 405.829 187.678 401.986 187.678C396.991 187.678 394.013 192.961 394.013 201.991V228.313H381.428V179.32H391.611L393.148 187.486H393.244C395.454 181.434 400.065 177.879 405.636 177.879ZM30.7403 309.808C24.1119 309.808 18.5401 306.638 15.6582 300.778H15.5621L14.1212 308.367H3.36195V237.279H15.9464V266.675H16.0425C19.0205 261.103 24.2079 257.933 30.7403 257.933C42.7484 257.933 50.6257 267.924 50.6257 283.87C50.6257 299.721 42.7484 309.808 30.7403 309.808ZM26.8017 298.76C33.6223 298.76 38.1373 292.997 38.1373 283.87C38.1373 274.84 33.6223 268.98 26.8017 268.98C19.885 268.98 15.4661 274.84 15.4661 283.87C15.4661 292.9 19.885 298.76 26.8017 298.76ZM83.945 310C68.4786 310 58.3919 299.529 58.3919 283.39C58.3919 267.828 67.518 257.741 81.7355 257.741C95.4728 257.741 104.215 267.539 104.215 282.91C104.215 284.735 104.119 286.56 103.83 287.521H70.8803C71.5527 295.398 76.5481 300.297 83.945 300.297C89.4207 300.297 93.7436 297.512 95.5688 292.708L105.271 296.551C102.582 304.909 94.1279 310 83.945 310ZM70.8803 279.355H91.5341C91.1499 271.766 87.5955 267.443 81.7355 267.443C75.3953 267.443 71.7448 271.958 70.8803 279.355ZM117.748 308.367L117.652 268.98H108.718V259.374H117.652V251.208C117.652 241.698 124.184 235.742 134.463 235.742C142.436 235.742 148.2 239.681 150.217 246.021L143.877 252.842C142.917 248.711 140.035 246.021 136.48 246.021C132.734 246.021 130.236 248.903 130.236 253.13V259.374H146.663V268.98H130.236V308.367H117.748ZM174.912 310C160.214 310 150.704 299.721 150.704 283.774C150.704 267.924 160.214 257.741 174.912 257.741C189.61 257.741 199.12 267.924 199.12 283.774C199.12 299.721 189.61 310 174.912 310ZM174.912 299.241C182.021 299.241 186.632 293.285 186.632 283.774C186.632 274.36 182.021 268.5 174.912 268.5C167.707 268.5 163.192 274.36 163.192 283.774C163.192 293.285 167.707 299.241 174.912 299.241ZM232.551 257.933C240.621 257.933 245.616 263.985 246.001 274.456L235.433 277.434C235.145 271.19 232.744 267.732 228.901 267.732C223.906 267.732 220.928 273.015 220.928 282.045V308.367H208.343V259.374H218.526L220.063 267.539H220.159C222.369 261.487 226.98 257.933 232.551 257.933ZM277.856 310C262.39 310 252.303 299.529 252.303 283.39C252.303 267.828 261.429 257.741 275.647 257.741C289.384 257.741 298.126 267.539 298.126 282.91C298.126 284.735 298.03 286.56 297.742 287.521H264.792C265.464 295.398 270.459 300.297 277.856 300.297C283.332 300.297 287.655 297.512 289.48 292.708L299.183 296.551C296.493 304.909 288.039 310 277.856 310ZM264.792 279.355H285.445C285.061 271.766 281.507 267.443 275.647 267.443C269.307 267.443 265.656 271.958 264.792 279.355Z" fill="white"/>
<path d="M4.41866 148.259V80.0536H22.0945L46.4949 131.16H46.687V80.0536H59.9439V148.259H42.3641L17.8677 97.2492H17.6756V148.259H4.41866ZM95.9531 149.892C80.4867 149.892 70.3999 139.421 70.3999 123.283C70.3999 107.72 79.5261 97.6334 93.7436 97.6334C107.481 97.6334 116.223 107.432 116.223 122.802C116.223 124.628 116.127 126.453 115.838 127.413H82.8883C83.5608 135.291 88.5561 140.19 95.9531 140.19C101.429 140.19 105.752 137.404 107.577 132.601L117.279 136.443C114.59 144.801 106.136 149.892 95.9531 149.892ZM82.8883 119.248H103.542C103.158 111.659 99.6035 107.336 93.7436 107.336C87.4033 107.336 83.7529 111.851 82.8883 119.248ZM134.09 148.259L120.737 99.2665H133.417L142.159 135.675H142.255L151.766 99.2665H164.734L174.437 135.963H174.533L183.083 99.2665H195.763L182.506 148.259H167.712L158.298 111.947H158.106L148.98 148.259H134.09ZM204.428 148.259V80.0536H218.453V136.251H244.006V148.259H204.428ZM274.761 149.892C259.294 149.892 249.207 139.421 249.207 123.283C249.207 107.72 258.334 97.6334 272.551 97.6334C286.288 97.6334 295.03 107.432 295.03 122.802C295.03 124.628 294.934 126.453 294.646 127.413H261.696C262.368 135.291 267.364 140.19 274.761 140.19C280.236 140.19 284.559 137.404 286.384 132.601L296.087 136.443C293.397 144.801 284.943 149.892 274.761 149.892ZM261.696 119.248H282.35C281.965 111.659 278.411 107.336 272.551 107.336C266.211 107.336 262.56 111.851 261.696 119.248ZM318.324 149.412C309.005 149.412 302.473 144.033 302.473 135.387C302.473 126.645 309.293 120.593 322.07 119.248L329.851 118.383C332.157 118.191 333.886 116.654 333.886 113.964C333.886 109.834 330.236 107.24 325.336 107.24C319.38 107.24 315.538 111.755 315.346 116.942L303.818 114.253C304.202 104.934 312.752 97.6334 325.432 97.6334C338.113 97.6334 346.086 104.934 346.086 115.886V148.259H334.943L333.598 141.439H333.502C330.428 146.53 325.048 149.412 318.324 149.412ZM322.935 139.902C329.083 139.902 333.598 135.291 333.598 128.47V125.972L324.952 126.933C318.131 127.702 315.057 130.487 315.057 134.138C315.057 137.788 318.324 139.902 322.935 139.902ZM374.914 149.7C362.906 149.7 355.028 139.614 355.028 123.763C355.028 107.816 362.906 97.8255 374.914 97.8255C381.446 97.8255 386.634 100.996 389.612 106.567H389.708V77.1717H402.292V148.259H391.533L390.092 140.67H389.996C387.114 146.53 381.542 149.7 374.914 149.7ZM378.852 138.653C385.769 138.653 390.188 132.793 390.188 123.763C390.188 114.733 385.769 108.873 378.852 108.873C372.032 108.873 367.517 114.733 367.517 123.763C367.517 132.889 372.032 138.653 378.852 138.653ZM432.924 149.796C420.724 149.796 411.309 143.744 410.925 132.601L422.261 130.776C422.549 137.116 427.064 140.67 433.308 140.67C438.4 140.67 442.242 138.461 442.242 135.002C442.146 132.024 439.552 130.295 433.5 128.758L426.488 126.933C417.169 124.531 413.135 120.305 413.231 113.004C413.231 103.685 420.916 97.6334 431.771 97.6334C442.05 97.6334 450.216 103.109 450.984 112.619L439.745 114.445C439.456 109.353 436.094 106.663 431.387 106.663C427.256 106.663 424.47 108.969 424.47 111.947C424.374 114.733 426.776 116.462 432.348 118.095L439.36 119.92C449.447 122.61 453.962 126.837 453.962 133.946C453.962 143.552 445.124 149.796 432.924 149.796Z" fill="url(#paint0_linear_7_875)"/>
<defs>
<linearGradient id="paint0_linear_7_875" x1="373.229" y1="76.3295" x2="253.381" y2="328.79" gradientUnits="userSpaceOnUse">
<stop stop-color="#9DE8EE"/>
<stop offset="0.0001" stop-color="#9DE8EE"/>
<stop offset="0.490049" stop-color="#FA7C0B"/>
<stop offset="1" stop-color="#9F8CED"/>
</linearGradient>
</defs>
</svg>
