<svg width="150" height="40" viewBox="0 0 150 40" fill="none" xmlns="http://www.w3.org/2000/svg">
<path d="M50.4932 26.3636H53.7717V11.3091H50.4932V26.3636Z" fill="#A1AEBF"/>
<path d="M60.497 26.6981C63.9256 26.6981 66.1756 24.5445 66.1756 20.739C66.1756 17.059 63.9898 14.759 60.497 14.759C57.0684 14.759 54.8398 16.9127 54.8398 20.739C54.8398 24.4399 57.0041 26.6981 60.497 26.6981ZM60.497 24.1054C59.0184 24.1054 58.2041 22.9136 58.2041 20.739C58.2041 18.5436 58.997 17.3518 60.497 17.3518C61.997 17.3518 62.8113 18.5645 62.8113 20.739C62.8113 22.9345 62.0184 24.1054 60.497 24.1054Z" fill="#A1AEBF"/>
<path d="M71.5101 26.3845C72.753 26.3845 73.7816 25.8827 74.5101 24.8999V26.7818C74.5101 28.3499 73.7173 28.8727 72.5387 28.8727C71.403 28.8727 70.5244 28.329 70.3958 27.3254H67.1173C67.5244 30.0645 69.6458 31.319 72.5816 31.319C75.603 31.319 77.7887 29.7509 77.7887 26.7399V15.1145H74.5101V16.1599C73.803 15.2399 72.7958 14.759 71.5101 14.759C68.6387 14.759 66.7744 16.8499 66.7744 20.5927C66.7744 24.1681 68.5958 26.3845 71.5101 26.3845ZM72.303 23.7918C70.8887 23.7918 70.1387 22.6418 70.1387 20.5927C70.1387 18.4809 70.8887 17.3518 72.303 17.3518C73.7387 17.3518 74.5101 18.5018 74.5101 20.5718C74.5101 22.6627 73.7601 23.7918 72.303 23.7918Z" fill="#A1AEBF"/>
<path d="M84.5321 26.6981C87.9607 26.6981 90.2107 24.5445 90.2107 20.739C90.2107 17.059 88.025 14.759 84.5321 14.759C81.1036 14.759 78.875 16.9127 78.875 20.739C78.875 24.4399 81.0393 26.6981 84.5321 26.6981ZM84.5321 24.1054C83.0536 24.1054 82.2393 22.9136 82.2393 20.739C82.2393 18.5436 83.0321 17.3518 84.5321 17.3518C86.0321 17.3518 86.8464 18.5645 86.8464 20.739C86.8464 22.9345 86.0536 24.1054 84.5321 24.1054Z" fill="#A1AEBF"/>
<path d="M91.3018 13.9854H94.5807V11.3091H91.3018V13.9854ZM91.3018 26.3636H94.5807V15.1145H91.3018V26.3636Z" fill="#A1AEBF"/>
<path d="M99.4202 30.9845V25.2345C100.106 26.1963 101.092 26.6981 102.313 26.6981C105.249 26.6981 107.156 24.5445 107.156 20.7181C107.156 17.0381 105.292 14.759 102.313 14.759C101.113 14.759 100.127 15.3027 99.4202 16.2854V15.1145H96.1416V30.9845H99.4202ZM101.627 17.3518C103.02 17.3518 103.792 18.5436 103.792 20.7181C103.792 22.9136 103.042 24.1054 101.627 24.1054C100.192 24.1054 99.4202 22.8927 99.4202 20.7181C99.4202 18.5436 100.17 17.3518 101.627 17.3518Z" fill="#A1AEBF"/>
<path d="M111.093 18.2299C111.093 17.6236 111.65 17.2054 112.507 17.2054C113.664 17.2054 114.35 17.6863 114.543 18.8363H117.8C117.478 15.9927 115.378 14.759 112.614 14.759C109.528 14.759 107.964 16.5154 107.964 18.3972C107.964 22.9136 114.95 20.969 114.95 23.1436C114.95 23.8336 114.371 24.2727 113.214 24.2727C111.993 24.2727 111.114 23.7081 110.964 22.6627H107.686C108.114 25.4436 110.214 26.6981 113.128 26.6981C116.128 26.6981 118.228 25.1718 118.228 22.9554C118.228 18.5018 111.093 20.4463 111.093 18.2299Z" fill="#A1AEBF"/>
<path d="M126.307 21.5754C126.307 23.0181 125.492 24.1054 124.228 24.1054C123.071 24.1054 122.514 23.3945 122.514 21.9518V15.1145H119.235V22.6C119.235 25.4018 120.843 26.6981 123.028 26.6981C124.421 26.6981 125.557 26.1127 126.307 24.8581V26.3636H129.585V15.1145H126.307V21.5754Z" fill="#A1AEBF"/>
<path d="M131.169 26.3636H134.448V19.9027C134.448 18.4599 135.198 17.3518 136.333 17.3518C137.383 17.3518 137.898 18.0836 137.898 19.5054V26.3636H141.155V19.9027C141.155 18.4599 141.926 17.3518 143.062 17.3518C144.112 17.3518 144.605 18.0836 144.605 19.5054V26.3636H147.883V18.8572C147.883 16.0763 146.298 14.759 144.155 14.759C142.719 14.759 141.498 15.3445 140.705 16.6199C140.126 15.3654 138.969 14.759 137.598 14.759C136.269 14.759 135.176 15.3236 134.448 16.5363V15.1145H131.169V26.3636Z" fill="#A1AEBF"/>
<path d="M38.0593 30.957C41.6109 27.8624 43.7887 23.6862 43.7887 19.091C43.7887 9.55151 34.4034 1.81824 22.826 1.81824C11.2486 1.81824 1.86328 9.55151 1.86328 19.091C1.86328 28.6304 11.2486 36.3637 22.826 36.3637C26.1105 36.3637 29.2185 35.7413 31.9859 34.6318C35.2367 36.5897 39.2195 37.9971 43.6182 37.7002C41.2944 37.1239 39.2955 34.7891 38.0593 30.957Z" fill="#728095"/>
<path d="M38.1985 19.0909C38.1985 26.12 31.3159 31.8182 22.8258 31.8182C14.3357 31.8182 7.45312 26.12 7.45312 19.0909C7.45312 12.0618 14.3357 6.36365 22.8258 6.36365C31.3159 6.36365 38.1985 12.0618 38.1985 19.0909Z" fill="#F7E476"/>
<path d="M32.6092 19.0909C32.6092 23.6096 28.2293 27.2727 22.8266 27.2727C17.4238 27.2727 13.0439 23.6096 13.0439 19.0909C13.0439 14.5721 17.4238 10.9091 22.8266 10.9091C28.2293 10.9091 32.6092 14.5721 32.6092 19.0909Z" fill="#A1AEBF"/>
</svg>
