<svg width="106" height="16" viewBox="0 0 106 16" fill="none" xmlns="http://www.w3.org/2000/svg">
<path d="M61.618 15.9521C60.3735 15.9521 59.2314 15.8422 58.1919 15.6225C57.1523 15.3881 56.2079 15.0805 55.3587 14.6997C54.5241 14.3042 53.7627 13.8574 53.0746 13.3593L54.7877 10.3711C55.9883 11.2207 57.1962 11.8432 58.4115 12.2387C59.6268 12.6196 60.7908 12.81 61.9036 12.81C62.3867 12.81 62.8919 12.7661 63.419 12.6782C63.9461 12.5756 64.3853 12.4072 64.7367 12.1728C65.1028 11.9238 65.2858 11.5869 65.2858 11.1621C65.2858 10.9131 65.1979 10.708 65.0222 10.5468C64.8612 10.3711 64.6342 10.2319 64.3414 10.1294C64.0486 10.0268 63.7045 9.94626 63.3092 9.88767C62.9285 9.81442 62.5112 9.76315 62.0573 9.73386C61.618 9.68991 61.1715 9.64597 60.7176 9.60202C59.6926 9.49948 58.7629 9.33103 57.9283 9.09665C57.0937 8.86228 56.3763 8.56199 55.776 8.19578C55.1903 7.81492 54.7364 7.35349 54.4143 6.8115C54.0922 6.26951 53.9311 5.64696 53.9311 4.94383C53.9311 4.15282 54.1215 3.4497 54.5021 2.83446C54.8975 2.21923 55.4465 1.70654 56.1493 1.29638C56.8522 0.871579 57.6574 0.549315 58.5652 0.329589C59.4877 0.109863 60.476 0 61.5302 0C62.6283 0 63.6166 0.102539 64.4951 0.307616C65.3883 0.498046 66.1716 0.761717 66.8451 1.09863C67.5333 1.43554 68.1043 1.80175 68.5582 2.19726L66.7573 4.79002C66.3034 4.45311 65.7763 4.16747 65.176 3.93309C64.5903 3.68407 63.968 3.49364 63.3092 3.36181C62.6649 3.22997 62.0207 3.16405 61.3764 3.16405C60.7176 3.16405 60.1246 3.22265 59.5975 3.33983C59.085 3.44237 58.675 3.6035 58.3676 3.82323C58.0747 4.02831 57.9283 4.2993 57.9283 4.63622C57.9283 4.94383 58.0528 5.20018 58.3017 5.40526C58.5652 5.59569 58.902 5.74949 59.312 5.86668C59.7219 5.96922 60.1758 6.04979 60.6736 6.10838C61.1715 6.16697 61.6546 6.22557 62.1232 6.28416C63.0017 6.37205 63.8655 6.48924 64.7148 6.63572C65.564 6.76756 66.3254 6.98728 66.9989 7.2949C67.687 7.58787 68.2361 8.01267 68.6461 8.56931C69.056 9.1113 69.261 9.85105 69.261 10.7885C69.261 11.8725 68.9316 12.8027 68.2727 13.5791C67.6138 14.3408 66.706 14.9267 65.5493 15.3369C64.4073 15.747 63.0969 15.9521 61.618 15.9521Z" fill="url(#paint0_linear_7_985)"/>
<path d="M93.9863 15.9109V12.5683H98.1153V3.64745H93.9863L93.9132 0.424738H106V3.64745H101.849V12.5683H106V15.9109H93.9863Z" fill="url(#paint1_linear_7_985)"/>
<path d="M0 13.3865L0.0414518 15.9109H15.5251L15.4836 12.5516H5.81681L15.2421 2.94954V0.424738H1.49943V3.96028H9.27121L0 13.3865Z" fill="url(#paint2_linear_7_985)"/>
<path d="M18.6366 15.9109V0.424738H32.4291V3.53759H22.2604V6.39402H31.4408V9.42624H22.2604V12.6834H32.6487V15.9109H18.6366Z" fill="url(#paint3_linear_7_985)"/>
<path d="M84.495 15.8642C82.8551 15.8642 81.4276 15.5419 80.2123 14.8974C78.997 14.2529 78.0527 13.3667 77.3791 12.2387C76.7056 11.1108 76.3688 9.73386 76.3688 8.28367V0.424738H80.1464V8.28367C80.1464 13.595 88.9534 13.595 88.9534 8.28367V0.424738H92.5992V8.28367C92.5992 9.73386 92.2625 11.1108 91.5889 12.2387C90.9154 13.3667 89.971 14.2529 88.7558 14.8974C87.5405 15.5419 86.1203 15.8642 84.495 15.8642Z" fill="url(#paint4_linear_7_985)"/>
<path d="M35.3563 8.28367V0.424738H39.1338V8.28367C39.1338 13.7705 47.9409 13.7705 47.9409 8.28367V0.424738H51.5866V8.28367C51.5866 18.5148 35.3563 18.4462 35.3563 8.28367Z" fill="url(#paint5_linear_7_985)"/>
<defs>
<linearGradient id="paint0_linear_7_985" x1="158.355" y1="7.51549" x2="-31.4329" y2="7.51549" gradientUnits="userSpaceOnUse">
<stop stop-color="#0C3C46"/>
<stop offset="1" stop-color="#124B56"/>
</linearGradient>
<linearGradient id="paint1_linear_7_985" x1="158.355" y1="7.51549" x2="-31.4329" y2="7.51549" gradientUnits="userSpaceOnUse">
<stop stop-color="#0C3C46"/>
<stop offset="1" stop-color="#124B56"/>
</linearGradient>
<linearGradient id="paint2_linear_7_985" x1="158.355" y1="7.51549" x2="-31.4329" y2="7.51549" gradientUnits="userSpaceOnUse">
<stop stop-color="#0C3C46"/>
<stop offset="1" stop-color="#124B56"/>
</linearGradient>
<linearGradient id="paint3_linear_7_985" x1="158.355" y1="7.51549" x2="-31.4329" y2="7.51549" gradientUnits="userSpaceOnUse">
<stop stop-color="#0C3C46"/>
<stop offset="1" stop-color="#124B56"/>
</linearGradient>
<linearGradient id="paint4_linear_7_985" x1="158.355" y1="7.51549" x2="-31.4329" y2="7.51549" gradientUnits="userSpaceOnUse">
<stop stop-color="#0C3C46"/>
<stop offset="1" stop-color="#124B56"/>
</linearGradient>
<linearGradient id="paint5_linear_7_985" x1="158.355" y1="7.51549" x2="-31.4329" y2="7.51549" gradientUnits="userSpaceOnUse">
<stop stop-color="#0C3C46"/>
<stop offset="1" stop-color="#124B56"/>
</linearGradient>
</defs>
</svg>
