<svg width="28" height="29" viewBox="0 0 28 29" fill="none" xmlns="http://www.w3.org/2000/svg">
<path d="M12.016 27.2814L0.34851 4.60262C0.0817998 4.0838 -0.0355591 3.50184 0.00935983 2.92092C0.0542788 2.34001 0.259742 1.78271 0.603076 1.31049C0.946421 0.838273 1.4143 0.469468 1.95513 0.244753C2.49595 0.0200381 3.08871 -0.0518529 3.66803 0.0370126L25.2908 3.35396C25.7885 3.43034 26.261 3.62307 26.6693 3.91631C27.0776 4.20956 27.41 4.59493 27.6393 5.04075C27.8684 5.48657 27.988 5.9801 27.9879 6.48077C27.9878 6.98143 27.8681 7.47493 27.6388 7.92068L17.678 27.2825C17.4106 27.7999 17.0048 28.234 16.5052 28.5369C16.0057 28.84 15.4319 29.0002 14.8467 29.0001C14.2615 28.9999 13.6877 28.8395 13.1882 28.5364C12.6888 28.2331 12.2832 27.7989 12.016 27.2814Z" fill="#728095"/>
</svg>
