<svg width="32" height="27" viewBox="0 0 32 27" fill="none" xmlns="http://www.w3.org/2000/svg">
<path d="M0.466111 11.8734C1.30485 8.483 3.24735 5.4722 5.9843 3.32057C8.72129 1.1689 12.0954 0 15.5693 0C19.0432 0 22.4172 1.1689 25.1542 3.32057C27.8912 5.4722 29.8336 8.483 30.6724 11.8734H29.3082C27.0068 11.8393 24.7527 12.531 22.8622 13.8514C22.7531 13.9308 22.6391 14.0034 22.5211 14.0686H22.362C22.244 14.0034 22.1301 13.9308 22.0209 13.8514C20.1137 12.5616 17.8675 11.8727 15.5693 11.8727C13.271 11.8727 11.0248 12.5616 9.11759 13.8514C9.00846 13.9308 8.89454 14.0034 8.77654 14.0686H8.61738C8.49937 14.0034 8.38546 13.9308 8.27632 13.8514C6.38584 12.531 4.13168 11.8393 1.83034 11.8734H0.466111ZM26.8526 19.0422C27.5529 18.4937 28.4209 18.2068 29.3082 18.2304H31.1385V14.5603H29.3082C27.7452 14.5413 26.2181 15.0305 24.954 15.9552C24.2427 16.4826 23.3822 16.7672 22.4984 16.7672C21.6146 16.7672 20.7541 16.4826 20.0428 15.9552C18.7467 15.0478 17.2053 14.5613 15.6261 14.5613C14.0469 14.5613 12.5055 15.0478 11.2094 15.9552C10.4981 16.4826 9.63759 16.7672 8.7538 16.7672C7.87001 16.7672 7.00952 16.4826 6.29819 15.9552C5.01854 15.0186 3.46946 14.5288 1.88718 14.5603H0V18.2304H1.83034C2.71767 18.2068 3.58565 18.4937 4.28595 19.0422C5.5797 19.9503 7.11934 20.4371 8.69696 20.4371C10.2746 20.4371 11.8142 19.9503 13.108 19.0422C13.8092 18.4955 14.6765 18.2087 15.5636 18.2304C16.4512 18.2048 17.3198 18.492 18.0192 19.0422C19.3153 19.9497 20.8567 20.4361 22.4359 20.4361C24.0151 20.4361 25.5564 19.9497 26.8526 19.0422ZM26.8526 25.6051C27.5529 25.0566 28.4209 24.7696 29.3082 24.7933H31.1385V21.1231H29.3082C27.7452 21.1041 26.2181 21.5934 24.954 22.518C24.2427 23.0454 23.3822 23.33 22.4984 23.33C21.6146 23.33 20.7541 23.0454 20.0428 22.518C18.7467 21.6106 17.2053 21.1243 15.6261 21.1243C14.0469 21.1243 12.5055 21.6106 11.2094 22.518C10.4981 23.0454 9.63759 23.33 8.7538 23.33C7.87001 23.33 7.00952 23.0454 6.29819 22.518C5.01854 21.5816 3.46946 21.0917 1.88718 21.1231H0V24.7933H1.83034C2.71767 24.7696 3.58565 25.0566 4.28595 25.6051C5.5797 26.5131 7.11934 26.9999 8.69696 26.9999C10.2746 26.9999 11.8142 26.5131 13.108 25.6051C13.8092 25.0583 14.6765 24.7716 15.5636 24.7933C16.4512 24.7677 17.3198 25.0549 18.0192 25.6051C19.3153 26.5125 20.8567 26.9989 22.4359 26.9989C24.0151 26.9989 25.5564 26.5125 26.8526 25.6051Z" fill="#4B5567"/>
</svg>
