<svg width="21" height="32" viewBox="0 0 21 32" fill="none" xmlns="http://www.w3.org/2000/svg">
<path d="M9.79272 19.8347V27.8956C9.79272 28.2047 9.66921 28.501 9.44936 28.7195C9.22961 28.938 8.93145 29.0607 8.62051 29.0607C8.30968 29.0607 8.01152 28.938 7.79166 28.7195C7.5718 28.501 7.4483 28.2047 7.4483 27.8956V19.8458C7.77472 20.0827 8.16598 20.215 8.57003 20.2249C9.01042 20.2374 9.44195 20.0997 9.79272 19.8347ZM19.7761 17.5045C19.4786 17.5045 19.1933 17.622 18.983 17.831C18.7726 18.0401 18.6544 18.3237 18.6544 18.6194V20.0242C18.6544 20.3333 18.7779 20.6296 18.9978 20.848C19.2175 21.0666 19.5157 21.1893 19.8266 21.1893C20.1376 21.1893 20.4357 21.0666 20.6555 20.848C20.8753 20.6296 20.9988 20.3333 20.9988 20.0242V18.6751C21.0076 18.5153 20.9815 18.3554 20.9225 18.2064C20.8635 18.0575 20.773 17.9228 20.6569 17.8117C20.5409 17.7007 20.4022 17.6157 20.2503 17.5627C20.0983 17.5097 19.9365 17.4898 19.7761 17.5045ZM4.90197 22.8896C4.49833 22.8775 4.10759 22.7455 3.78024 22.5105V30.5938C3.78024 30.9043 3.90432 31.2021 4.12521 31.4216C4.34609 31.6411 4.64567 31.7645 4.95805 31.7645C5.27043 31.7645 5.57002 31.6411 5.7909 31.4216C6.01179 31.2021 6.13587 30.9043 6.13587 30.5938V22.5663C5.76957 22.8016 5.33738 22.9149 4.90197 22.8896ZM16.1193 15.0851C15.9673 15.0775 15.8154 15.1008 15.6727 15.1534C15.5302 15.206 15.3998 15.287 15.2895 15.3912C15.1794 15.4956 15.0918 15.621 15.0319 15.76C14.9721 15.8991 14.9412 16.0488 14.9415 16.2V22.4102C14.9415 22.7207 15.0655 23.0185 15.2864 23.238C15.5074 23.4575 15.8069 23.5808 16.1193 23.5808C16.4317 23.5808 16.7313 23.4575 16.9522 23.238C17.173 23.0185 17.2971 22.7207 17.2971 22.4102V16.278C17.3061 16.1171 17.2798 15.9563 17.2202 15.8064C17.1605 15.6566 17.0689 15.5213 16.9516 15.4101C16.8343 15.2988 16.6942 15.214 16.5408 15.1619C16.3875 15.1096 16.2245 15.091 16.0632 15.1073L16.1193 15.0851ZM12.3951 17.471C11.9726 17.4681 11.5614 17.3358 11.2173 17.0919V25.1975C11.2173 25.508 11.3414 25.8058 11.5622 26.0253C11.7832 26.2449 12.0827 26.3682 12.3951 26.3682C12.7075 26.3682 13.007 26.2449 13.228 26.0253C13.4489 25.8058 13.573 25.508 13.573 25.1975V17.1031C13.2171 17.3665 12.7827 17.5039 12.339 17.4933L12.3951 17.471ZM2.35564 23.6812V1.03689C2.35269 0.760864 2.24029 0.49716 2.04286 0.303017C1.84544 0.108873 1.57893 -1.11485e-05 1.30121 8.56151e-10H1.05443C0.77671 -1.11485e-05 0.510197 0.108873 0.312773 0.303017C0.115348 0.49716 0.00295015 0.760864 0 1.03689V23.6812C0 23.9591 0.111096 24.2257 0.308835 24.4223C0.506574 24.6188 0.77478 24.7292 1.05443 24.7292H1.30121C1.58087 24.7292 1.84906 24.6188 2.0468 24.4223C2.24455 24.2257 2.35564 23.9591 2.35564 23.6812ZM5.02536 22.0311H4.77858C4.49893 22.0311 4.23072 21.9207 4.03298 21.7241C3.83525 21.5276 3.72415 21.261 3.72415 20.983V3.73503C3.72711 3.45901 3.8395 3.19529 4.03692 3.00116C4.23435 2.80701 4.50086 2.69813 4.77858 2.69814H5.02536C5.30308 2.69813 5.56959 2.80701 5.76701 3.00116C5.96444 3.19529 6.07684 3.45901 6.07979 3.73503V21.0053C6.07979 21.2833 5.96869 21.5499 5.77095 21.7464C5.57321 21.943 5.30501 22.0534 5.02536 22.0534V22.0311ZM8.73829 19.3775H8.48029C8.20367 19.3775 7.93827 19.2683 7.74264 19.0738C7.54701 18.8794 7.43708 18.6157 7.43708 18.3407V6.41087C7.43562 6.27376 7.46153 6.13773 7.51325 6.01064C7.56496 5.88355 7.64157 5.76793 7.7386 5.67046C7.83563 5.573 7.95117 5.49562 8.07849 5.44282C8.2058 5.39001 8.34232 5.36282 8.48029 5.36283H8.73829C9.01603 5.36577 9.28132 5.47748 9.47661 5.67371C9.67202 5.86994 9.7815 6.13483 9.7815 6.41087V18.3407C9.7815 18.6157 9.67157 18.8794 9.47594 19.0738C9.28031 19.2683 9.01502 19.3775 8.73829 19.3775ZM12.4512 16.646H12.2157C11.9379 16.646 11.6714 16.5371 11.474 16.3429C11.2765 16.1488 11.1641 15.8851 11.1612 15.6091V9.18705C11.152 9.04389 11.1724 8.9004 11.2214 8.76538C11.2702 8.63048 11.3464 8.50683 11.4453 8.40236C11.5441 8.29778 11.6634 8.21461 11.796 8.15775C11.9285 8.101 12.0713 8.07178 12.2157 8.07212H12.4624C12.7421 8.07212 13.0103 8.1825 13.2081 8.37906C13.4058 8.57562 13.5169 8.8422 13.5169 9.12016V15.5868C13.5183 15.7254 13.4922 15.8628 13.4398 15.9913C13.3875 16.1197 13.3101 16.2366 13.212 16.3351C13.1139 16.4336 12.9973 16.5117 12.8685 16.5651C12.7398 16.6185 12.6019 16.646 12.4624 16.646H12.4512ZM16.1754 14.2488H15.9286C15.6489 14.2488 15.3807 14.1385 15.183 13.9419C14.9852 13.7453 14.8742 13.4788 14.8742 13.2008V11.5396C14.8771 11.2635 14.9895 10.9998 15.1869 10.8057C15.3843 10.6115 15.6509 10.5027 15.9286 10.5027H16.1754C16.4531 10.5027 16.7196 10.6115 16.9171 10.8057C17.1145 10.9998 17.2269 11.2635 17.2298 11.5396V13.2008C17.2298 13.4769 17.1203 13.7418 16.9249 13.938C16.7296 14.1342 16.4643 14.246 16.1866 14.2488H16.1754Z" fill="white"/>
</svg>
