<svg width="1441" height="870" viewBox="0 0 1441 870" fill="none" xmlns="http://www.w3.org/2000/svg">
<path d="M72.4843 0.5V67.3461M72.4843 0.5H0.5V67.3461M72.4843 0.5H144.469M72.4843 67.3461L72.4843 134.192M72.4843 67.3461H0.5M72.4843 67.3461L144.469 67.3462M72.4843 134.192V201.038M72.4843 134.192H0.5M72.4843 134.192L144.469 134.192M72.4843 201.038L72.4843 267.885M72.4843 201.038H0.5M72.4843 201.038H144.468M72.4843 267.885V334.731M72.4843 267.885H0.5M72.4843 267.885H144.468M72.4843 334.731V401.577M72.4843 334.731H0.5M72.4843 334.731H144.468M72.4843 401.577L72.4842 468.423M72.4843 401.577H0.5M72.4843 401.577H144.468M72.4842 468.423V535.269M72.4842 468.423H0.5M72.4842 468.423H144.468M72.4842 535.269V602.115M72.4842 535.269H0.5M72.4842 535.269H144.468M72.4842 602.115L72.4842 668.961M72.4842 602.115H0.5M72.4842 602.115H144.468M72.4842 668.961V735.808M72.4842 668.961H0.5M72.4842 668.961H144.468M72.4842 735.808L72.4842 802.654M72.4842 735.808H0.5M72.4842 735.808H144.468M72.4842 802.654V869.5M72.4842 802.654H0.5M72.4842 802.654H144.468M72.4842 869.5L0.5 869.5V802.654M72.4842 869.5H144.468M0.5 67.3461V134.192M0.5 134.192V201.038M0.5 201.038V267.885M0.5 267.885V334.731M0.5 334.731V401.577M0.5 401.577V468.423M0.5 468.423V535.269M0.5 535.269V602.115M0.5 602.115V668.961M0.5 668.961V735.808M0.5 735.808V802.654M144.469 0.5V67.3462M144.469 0.5H216.453M144.469 67.3462V134.192M144.469 67.3462H216.453M144.469 134.192L144.468 201.038M144.469 134.192H216.453M144.468 201.038V267.885M144.468 201.038L216.453 201.038M144.468 267.885V334.731M144.468 267.885H216.453M144.468 334.731V401.577M144.468 334.731H216.453M144.468 401.577L144.468 468.423M144.468 401.577H216.453M144.468 468.423V535.269M144.468 468.423H216.453M144.468 535.269V602.115M144.468 535.269H216.453M144.468 602.115V668.961M144.468 602.115H216.453M144.468 668.961L144.468 735.808M144.468 668.961H216.453M144.468 735.808V802.654M144.468 735.808H216.453M144.468 802.654V869.5M144.468 802.654H216.453M144.468 869.5H216.453M216.453 0.5V67.3462M216.453 0.5H288.437M216.453 67.3462V134.192M216.453 67.3462L288.437 67.3462M216.453 134.192L216.453 201.038M216.453 134.192H288.437M216.453 201.038V267.885M216.453 201.038H288.437M216.453 267.885V334.731M216.453 267.885L288.437 267.885M216.453 334.731V401.577M216.453 334.731L288.437 334.731M216.453 401.577L216.453 468.423M216.453 401.577H288.437M216.453 468.423V535.269M216.453 468.423H288.437M216.453 535.269V602.115M216.453 535.269H288.437M216.453 602.115V668.961M216.453 602.115H288.437M216.453 668.961L216.453 735.808M216.453 668.961H288.437M216.453 735.808V802.654M216.453 735.808H288.437M216.453 802.654V869.5M216.453 802.654H288.437M216.453 869.5H288.437M288.437 0.5V67.3462M288.437 0.5H360.421M288.437 67.3462V134.192M288.437 67.3462H360.421M288.437 134.192V201.038M288.437 134.192L360.421 134.192M288.437 201.038V267.885M288.437 201.038H360.421M288.437 267.885V334.731M288.437 267.885H360.421M288.437 334.731V401.577M288.437 334.731H360.421M288.437 401.577L288.437 468.423M288.437 401.577H360.421M288.437 468.423V535.269M288.437 468.423H360.421M288.437 535.269V602.115M288.437 535.269H360.421M288.437 602.115V668.961M288.437 602.115H360.421M288.437 668.961V735.808M288.437 668.961H360.421M288.437 735.808V802.654M288.437 735.808H360.421M288.437 802.654V869.5M288.437 802.654H360.421M288.437 869.5H360.421M504.39 0.5V67.3462M504.39 0.5H432.405M504.39 0.5H576.374M504.39 67.3462V134.192M504.39 67.3462H432.405M504.39 67.3462L576.374 67.3462M504.39 134.192V201.038M504.39 134.192H432.405M504.39 134.192H576.374M504.39 201.038V267.885M504.39 201.038L432.405 201.038M504.39 201.038H576.374M504.39 267.885V334.731M504.39 267.885H432.405M504.39 267.885H576.374M504.39 334.731V401.577M504.39 334.731H432.405M504.39 334.731H576.374M504.39 401.577L504.39 468.423M504.39 401.577L432.405 401.577M504.39 401.577H576.374M504.39 468.423V535.269M504.39 468.423L432.405 468.423M504.39 468.423H576.374M504.39 535.269V602.115M504.39 535.269L432.405 535.269M504.39 535.269H576.374M504.39 602.115V668.962M504.39 602.115H432.405M504.39 602.115H576.374M504.39 668.962V735.808M504.39 668.962L432.405 668.961M504.39 668.962H576.374M504.39 735.808V802.654M504.39 735.808L432.405 735.808M504.39 735.808H576.374M504.39 802.654V869.5M504.39 802.654L432.405 802.654M504.39 802.654H576.374M504.39 869.5H432.405M504.39 869.5H576.374M720.342 0.5V67.3462M720.342 0.5H648.358M720.342 0.5H792.327M720.342 67.3462V134.192M720.342 67.3462L648.358 67.3462M720.342 67.3462H792.327M720.342 134.192V201.038M720.342 134.192H648.358M720.342 134.192H792.327M720.342 201.038V267.885M720.342 201.038H648.358M720.342 201.038L792.327 201.038M720.342 267.885V334.731M720.342 267.885L648.358 267.885M720.342 267.885H792.327M720.342 334.731V401.577M720.342 334.731L648.358 334.731M720.342 334.731H792.327M720.342 401.577L720.342 468.423M720.342 401.577H648.358M720.342 401.577H792.327M720.342 468.423V535.269M720.342 468.423H648.358M720.342 468.423H792.327M720.342 535.269V602.115M720.342 535.269H648.358M720.342 535.269H792.327M720.342 602.115V668.962M720.342 602.115H648.358M720.342 602.115H792.327M720.342 668.962V735.808M720.342 668.962H648.358M720.342 668.962H792.327M720.342 735.808V802.654M720.342 735.808H648.358M720.342 735.808H792.327M720.342 802.654V869.5M720.342 802.654H648.358M720.342 802.654H792.327M720.342 869.5H648.358M720.342 869.5H792.327M360.421 0.5V67.3462M360.421 0.5H432.405M360.421 67.3462V134.192M360.421 67.3462L432.405 67.3462M360.421 134.192V201.038M360.421 134.192H432.405M360.421 201.038V267.885M360.421 201.038H432.405M360.421 267.885V334.731M360.421 267.885H432.405M360.421 334.731V401.577M360.421 334.731H432.405M360.421 401.577L360.421 468.423M360.421 401.577H432.405M360.421 468.423V535.269M360.421 468.423H432.405M360.421 535.269V602.115M360.421 535.269H432.405M360.421 602.115V668.961M360.421 602.115H432.405M360.421 668.961V735.808M360.421 668.961H432.405M360.421 735.808V802.654M360.421 735.808H432.405M360.421 802.654V869.5M360.421 802.654H432.405M360.421 869.5H432.405M576.374 0.5V67.3462M576.374 0.5H648.358M576.374 67.3462V134.192M576.374 67.3462H648.358M576.374 134.192V201.038M576.374 134.192L648.358 134.192M576.374 201.038V267.885M576.374 201.038H648.358M576.374 267.885V334.731M576.374 267.885H648.358M576.374 334.731V401.577M576.374 334.731H648.358M576.374 401.577L576.374 468.423M576.374 401.577H648.358M576.374 468.423V535.269M576.374 468.423H648.358M576.374 535.269V602.115M576.374 535.269H648.358M576.374 602.115V668.962M576.374 602.115H648.358M576.374 668.962V735.808M576.374 668.962H648.358M576.374 735.808V802.654M576.374 735.808H648.358M576.374 802.654V869.5M576.374 802.654H648.358M576.374 869.5H648.358M792.327 0.5V67.3462M792.327 0.5H864.311M792.327 67.3462V134.192M792.327 67.3462L864.311 67.3462M792.327 134.192V201.038M792.327 134.192L864.311 134.192M792.327 201.038V267.885M792.327 201.038H864.311M792.327 267.885V334.731M792.327 267.885H864.311M792.327 334.731V401.577M792.327 334.731H864.311M792.327 401.577V468.423M792.327 401.577H864.311M792.327 468.423V535.269M792.327 468.423H864.311M792.327 535.269V602.115M792.327 535.269H864.311M792.327 602.115V668.962M792.327 602.115H864.311M792.327 668.962V735.808M792.327 668.962H864.311M792.327 735.808V802.654M792.327 735.808H864.311M792.327 802.654V869.5M792.327 802.654H864.311M792.327 869.5H864.311M432.405 0.5V67.3462M432.405 67.3462V134.192M432.405 134.192V201.038M432.405 201.038L432.405 267.885M432.405 267.885V334.731M432.405 334.731V401.577M432.405 401.577V468.423M432.405 468.423V535.269M432.405 535.269V602.115M432.405 602.115L432.405 668.961M432.405 668.961V735.808M432.405 735.808V802.654M432.405 802.654V869.5M648.358 0.5V67.3462M648.358 67.3462V134.192M648.358 134.192V201.038M648.358 201.038V267.885M648.358 267.885V334.731M648.358 334.731V401.577M648.358 401.577V468.423M648.358 468.423V535.269M648.358 535.269V602.115M648.358 602.115V668.962M648.358 668.962V735.808M648.358 735.808V802.654M648.358 802.654V869.5M864.311 0.5V67.3462M864.311 0.5H936.295V869.5H864.311M864.311 67.3462V134.192M864.311 67.3462H936.294M864.311 134.192V201.038M864.311 134.192H936.294M864.311 201.038V267.885M864.311 201.038H936.294M864.311 267.885V334.731M864.311 267.885H936.294M864.311 334.731V401.577M864.311 334.731H936.294M864.311 401.577V468.423M864.311 401.577H936.294M864.311 468.423V535.269M864.311 468.423H936.294M864.311 535.269V602.115M864.311 535.269H936.294M864.311 602.115V668.962M864.311 602.115H936.294M864.311 668.962V735.808M864.311 668.962H936.294M864.311 735.808V802.654M864.311 735.808H936.294M864.311 802.654V869.5M864.311 802.654H936.294M576.689 0.5V67.3461M576.689 0.5H504.705V67.3461M576.689 0.5H648.673M576.689 67.3461V134.192M576.689 67.3461H504.705M576.689 67.3461L648.673 67.3462M576.689 134.192V201.038M576.689 134.192H504.705M576.689 134.192L648.673 134.192M576.689 201.038V267.885M576.689 201.038H504.705M576.689 201.038H648.673M576.689 267.885V334.731M576.689 267.885H504.705M576.689 267.885H648.673M576.689 334.731V401.577M576.689 334.731H504.705M576.689 334.731H648.673M576.689 401.577V468.423M576.689 401.577H504.705M576.689 401.577H648.673M576.689 468.423V535.269M576.689 468.423H504.705M576.689 468.423H648.673M576.689 535.269V602.115M576.689 535.269H504.705M576.689 535.269H648.673M576.689 602.115V668.961M576.689 602.115H504.705M576.689 602.115H648.673M576.689 668.961V735.808M576.689 668.961H504.705M576.689 668.961H648.673M576.689 735.808L576.689 802.654M576.689 735.808H504.705M576.689 735.808H648.673M576.689 802.654V869.5M576.689 802.654H504.705M576.689 802.654H648.673M576.689 869.5L504.705 869.5V802.654M576.689 869.5H648.673M504.705 67.3461V134.192M504.705 134.192V201.038M504.705 201.038V267.885M504.705 267.885V334.731M504.705 334.731V401.577M504.705 401.577V468.423M504.705 468.423V535.269M504.705 535.269V602.115M504.705 602.115V668.961M504.705 668.961V735.808M504.705 735.808V802.654M648.673 0.5V67.3462M648.673 0.5H720.658M648.673 67.3462V134.192M648.673 67.3462H720.658M648.673 134.192V201.038M648.673 134.192H720.658M648.673 201.038V267.885M648.673 201.038L720.658 201.038M648.673 267.885V334.731M648.673 267.885H720.658M648.673 334.731V401.577M648.673 334.731H720.658M648.673 401.577V468.423M648.673 401.577H720.658M648.673 468.423V535.269M648.673 468.423H720.658M648.673 535.269V602.115M648.673 535.269H720.658M648.673 602.115V668.961M648.673 602.115H720.658M648.673 668.961V735.808M648.673 668.961H720.658M648.673 735.808V802.654M648.673 735.808H720.658M648.673 802.654V869.5M648.673 802.654H720.658M648.673 869.5H720.658M720.658 0.5V67.3462M720.658 0.5H792.642M720.658 67.3462V134.192M720.658 67.3462L792.642 67.3462M720.658 134.192L720.658 201.038M720.658 134.192H792.642M720.658 201.038V267.885M720.658 201.038H792.642M720.658 267.885V334.731M720.658 267.885L792.642 267.885M720.658 334.731V401.577M720.658 334.731L792.642 334.731M720.658 401.577V468.423M720.658 401.577H792.642M720.658 468.423V535.269M720.658 468.423H792.642M720.658 535.269V602.115M720.658 535.269H792.642M720.658 602.115V668.961M720.658 602.115H792.642M720.658 668.961V735.808M720.658 668.961H792.642M720.658 735.808V802.654M720.658 735.808H792.642M720.658 802.654V869.5M720.658 802.654H792.642M720.658 869.5H792.642M792.642 0.5V67.3462M792.642 0.5H864.626M792.642 67.3462V134.192M792.642 67.3462H864.626M792.642 134.192V201.038M792.642 134.192L864.626 134.192M792.642 201.038V267.885M792.642 201.038H864.626M792.642 267.885V334.731M792.642 267.885H864.626M792.642 334.731V401.577M792.642 334.731H864.626M792.642 401.577L792.642 468.423M792.642 401.577H864.626M792.642 468.423V535.269M792.642 468.423H864.626M792.642 535.269V602.115M792.642 535.269H864.626M792.642 602.115V668.961M792.642 602.115H864.626M792.642 668.961V735.808M792.642 668.961H864.626M792.642 735.808V802.654M792.642 735.808H864.626M792.642 802.654V869.5M792.642 802.654H864.626M792.642 869.5H864.626M1008.59 0.5V67.3462M1008.59 0.5H936.61M1008.59 0.5H1080.58M1008.59 67.3462V134.192M1008.59 67.3462H936.61M1008.59 67.3462L1080.58 67.3462M1008.59 134.192V201.038M1008.59 134.192H936.61M1008.59 134.192H1080.58M1008.59 201.038V267.885M1008.59 201.038L936.61 201.038M1008.59 201.038H1080.58M1008.59 267.885V334.731M1008.59 267.885H936.61M1008.59 267.885H1080.58M1008.59 334.731V401.577M1008.59 334.731H936.61M1008.59 334.731H1080.58M1008.59 401.577V468.423M1008.59 401.577L936.61 401.577M1008.59 401.577H1080.58M1008.59 468.423V535.269M1008.59 468.423L936.61 468.423M1008.59 468.423H1080.58M1008.59 535.269V602.115M1008.59 535.269L936.61 535.269M1008.59 535.269H1080.58M1008.59 602.115V668.962M1008.59 602.115H936.61M1008.59 602.115H1080.58M1008.59 668.962V735.808M1008.59 668.962L936.61 668.961M1008.59 668.962H1080.58M1008.59 735.808V802.654M1008.59 735.808L936.61 735.808M1008.59 735.808H1080.58M1008.59 802.654V869.5M1008.59 802.654L936.61 802.654M1008.59 802.654H1080.58M1008.59 869.5H936.61M1008.59 869.5H1080.58M1224.55 0.5V67.3462M1224.55 0.5H1152.56M1224.55 0.5H1296.53M1224.55 67.3462V134.192M1224.55 67.3462L1152.56 67.3462M1224.55 67.3462H1296.53M1224.55 134.192V201.038M1224.55 134.192H1152.56M1224.55 134.192H1296.53M1224.55 201.038V267.885M1224.55 201.038H1152.56M1224.55 201.038L1296.53 201.038M1224.55 267.885V334.731M1224.55 267.885L1152.56 267.885M1224.55 267.885H1296.53M1224.55 334.731V401.577M1224.55 334.731L1152.56 334.731M1224.55 334.731H1296.53M1224.55 401.577L1224.55 468.423M1224.55 401.577H1152.56M1224.55 401.577H1296.53M1224.55 468.423V535.269M1224.55 468.423H1152.56M1224.55 468.423H1296.53M1224.55 535.269V602.115M1224.55 535.269H1152.56M1224.55 535.269H1296.53M1224.55 602.115V668.962M1224.55 602.115H1152.56M1224.55 602.115H1296.53M1224.55 668.962V735.808M1224.55 668.962H1152.56M1224.55 668.962H1296.53M1224.55 735.808V802.654M1224.55 735.808H1152.56M1224.55 735.808H1296.53M1224.55 802.654V869.5M1224.55 802.654H1152.56M1224.55 802.654H1296.53M1224.55 869.5H1152.56M1224.55 869.5H1296.53M864.626 0.5V67.3462M864.626 0.5H936.61M864.626 67.3462V134.192M864.626 67.3462L936.61 67.3462M864.626 134.192V201.038M864.626 134.192H936.61M864.626 201.038V267.885M864.626 201.038H936.61M864.626 267.885V334.731M864.626 267.885H936.61M864.626 334.731V401.577M864.626 334.731H936.61M864.626 401.577V468.423M864.626 401.577H936.61M864.626 468.423V535.269M864.626 468.423H936.61M864.626 535.269V602.115M864.626 535.269H936.61M864.626 602.115V668.961M864.626 602.115H936.61M864.626 668.961V735.808M864.626 668.961H936.61M864.626 735.808V802.654M864.626 735.808H936.61M864.626 802.654V869.5M864.626 802.654H936.61M864.626 869.5H936.61M1080.58 0.5V67.3462M1080.58 0.5H1152.56M1080.58 67.3462V134.192M1080.58 67.3462H1152.56M1080.58 134.192V201.038M1080.58 134.192L1152.56 134.192M1080.58 201.038V267.885M1080.58 201.038H1152.56M1080.58 267.885V334.731M1080.58 267.885H1152.56M1080.58 334.731V401.577M1080.58 334.731H1152.56M1080.58 401.577V468.423M1080.58 401.577H1152.56M1080.58 468.423V535.269M1080.58 468.423H1152.56M1080.58 535.269V602.115M1080.58 535.269H1152.56M1080.58 602.115V668.962M1080.58 602.115H1152.56M1080.58 668.962V735.808M1080.58 668.962H1152.56M1080.58 735.808V802.654M1080.58 735.808H1152.56M1080.58 802.654V869.5M1080.58 802.654H1152.56M1080.58 869.5H1152.56M1296.53 0.5V67.3462M1296.53 0.5H1368.52M1296.53 67.3462V134.192M1296.53 67.3462L1368.52 67.3462M1296.53 134.192V201.038M1296.53 134.192L1368.52 134.192M1296.53 201.038V267.885M1296.53 201.038H1368.52M1296.53 267.885V334.731M1296.53 267.885H1368.52M1296.53 334.731V401.577M1296.53 334.731H1368.52M1296.53 401.577V468.423M1296.53 401.577H1368.52M1296.53 468.423V535.269M1296.53 468.423H1368.52M1296.53 535.269V602.115M1296.53 535.269H1368.52M1296.53 602.115V668.962M1296.53 602.115H1368.52M1296.53 668.962V735.808M1296.53 668.962H1368.52M1296.53 735.808V802.654M1296.53 735.808H1368.52M1296.53 802.654V869.5M1296.53 802.654H1368.52M1296.53 869.5H1368.52M936.61 0.5V67.3462M936.61 67.3462V134.192M936.61 134.192V201.038M936.61 201.038V267.885M936.61 267.885V334.731M936.61 334.731V401.577M936.61 401.577V468.423M936.61 468.423V535.269M936.61 535.269V602.115M936.61 602.115L936.61 668.961M936.61 668.961V735.808M936.61 735.808V802.654M936.61 802.654V869.5M1152.56 0.5V67.3462M1152.56 67.3462V134.192M1152.56 134.192V201.038M1152.56 201.038V267.885M1152.56 267.885V334.731M1152.56 334.731V401.577M1152.56 401.577V468.423M1152.56 468.423V535.269M1152.56 535.269V602.115M1152.56 602.115V668.962M1152.56 668.962V735.808M1152.56 735.808V802.654M1152.56 802.654V869.5M1368.52 0.5V67.3462M1368.52 0.5H1440.5V869.5H1368.52M1368.52 67.3462V134.192M1368.52 67.3462H1440.5M1368.52 134.192V201.038M1368.52 134.192H1440.5M1368.52 201.038V267.885M1368.52 201.038H1440.5M1368.52 267.885V334.731M1368.52 267.885H1440.5M1368.52 334.731V401.577M1368.52 334.731H1440.5M1368.52 401.577V468.423M1368.52 401.577H1440.5M1368.52 468.423V535.269M1368.52 468.423H1440.5M1368.52 535.269V602.115M1368.52 535.269H1440.5M1368.52 602.115V668.962M1368.52 602.115H1440.5M1368.52 668.962V735.808M1368.52 668.962H1440.5M1368.52 735.808V802.654M1368.52 735.808H1440.5M1368.52 802.654V869.5M1368.52 802.654H1440.5" stroke="url(#paint0_linear_7_871)"/>
<defs>
<linearGradient id="paint0_linear_7_871" x1="0.5" y1="0.5" x2="1367.57" y2="930.796" gradientUnits="userSpaceOnUse">
<stop stop-color="white" stop-opacity="0.1"/>
<stop offset="1" stop-color="white" stop-opacity="0"/>
</linearGradient>
</defs>
</svg>
